<?xml version="1.0" standalone="no"?>
<!DOCTYPE svg PUBLIC "-//W3C//DTD SVG 20010904//EN"
 "http://www.w3.org/TR/2001/REC-SVG-20010904/DTD/svg10.dtd">
<svg version="1.0" xmlns="http://www.w3.org/2000/svg"
 width="2000.000000pt" height="2000.000000pt" viewBox="0 0 2000.000000 2000.000000"
 preserveAspectRatio="xMidYMid meet">

<g transform="translate(0.000000,2000.000000) scale(0.100000,-0.100000)"
fill="#000000" stroke="none">
<path d="M9760 15130 c-1248 -85 -2373 -502 -3344 -1239 -412 -313 -829 -725
-1144 -1130 -1449 -1864 -1701 -4399 -646 -6512 127 -255 221 -417 389 -669
922 -1382 2358 -2331 3985 -2634 710 -132 1446 -138 2166 -16 1803 304 3380
1406 4299 3005 888 1544 1058 3414 463 5105 -203 577 -504 1138 -875 1634
-924 1232 -2264 2071 -3758 2355 -201 38 -393 66 -605 86 -192 19 -744 28
-930 15z m910 -494 c227 -25 302 -35 500 -72 975 -182 1854 -601 2630 -1252
161 -136 536 -511 670 -672 658 -790 1082 -1706 1249 -2700 156 -929 80 -1890
-220 -2775 -531 -1563 -1727 -2825 -3258 -3437 -389 -156 -774 -263 -1196
-332 -1407 -233 -2873 84 -4058 876 -305 204 -552 405 -821 668 -453 444 -810
930 -1096 1495 -857 1692 -809 3705 128 5350 191 336 464 717 706 985 111 123
450 452 566 549 946 793 2062 1243 3295 1331 176 13 734 4 905 -14z"/>
<path d="M8335 12063 c-79 -10 -236 -48 -314 -75 -206 -73 -374 -181 -542
-348 -211 -211 -335 -436 -401 -731 l-23 -104 0 -1815 c0 -1714 1 -1820 18
-1900 61 -287 188 -528 387 -734 127 -131 238 -214 395 -291 140 -69 233 -102
365 -131 81 -18 169 -19 1920 -19 l1835 0 110 28 c533 134 941 529 1079 1045
48 179 47 158 44 2057 l-3 1790 -27 107 c-140 562 -551 966 -1121 1101 l-92
21 -1800 2 c-990 1 -1813 -1 -1830 -3z m3561 -364 c163 -22 324 -83 465 -174
87 -56 241 -207 299 -294 62 -92 127 -236 158 -348 l27 -98 3 -1740 c2 -1205
-1 -1765 -8 -1823 -37 -286 -194 -554 -429 -733 -91 -69 -266 -153 -386 -186
l-100 -28 -1754 -3 c-1913 -3 -1830 -5 -2006 54 -402 134 -692 488 -745 906
-6 54 -10 669 -10 1763 0 1803 -1 1774 51 1940 106 343 385 621 728 725 159
49 132 48 1933 49 1158 1 1721 -2 1774 -10z"/>
<path d="M12007 11240 c-96 -25 -173 -88 -216 -179 -21 -46 -26 -71 -26 -137
0 -70 4 -88 30 -139 121 -237 467 -229 579 14 31 67 29 198 -3 263 -65 133
-227 212 -364 178z"/>
<path d="M9965 10974 c-675 -71 -1237 -431 -1565 -1004 -466 -814 -285 -1867
425 -2478 335 -288 720 -447 1167 -483 402 -33 843 77 1193 296 460 289 778
748 890 1284 69 330 51 678 -51 1002 -178 560 -595 1015 -1137 1237 -135 56
-302 103 -447 127 -92 15 -394 27 -475 19z m316 -415 c365 -37 679 -184 945
-441 280 -272 444 -621 475 -1013 27 -352 -69 -708 -275 -1010 -86 -127 -284
-323 -411 -407 -424 -281 -913 -348 -1384 -191 -457 152 -827 517 -985 970
-68 196 -81 282 -81 523 0 241 13 326 81 523 235 677 925 1119 1635 1046z"/>
</g>
</svg>
